<?xml version="1.0" ?><!-- Uploaded to: SVG Repo, www.svgrepo.com, Generator: SVG Repo Mixer Tools -->
<svg width="800px" height="800px" viewBox="0 0 24 24" fill="none" xmlns="http://www.w3.org/2000/svg"><path d="M7 9V6C7 4.89543 7.89543 4 9 4H19C20.1046 4 21 4.89543 21 6V18C21 19.1046 20.1046 20 19 20H13M13 20V13.8284C13 13.298 12.7893 12.7893 12.4142 12.4142L9.41421 9.41421C8.63317 8.63317 7.36684 8.63316 6.58579 9.41421L3.58579 12.4142C3.21071 12.7893 3 13.298 3 13.8284V18C3 19.1046 3.89543 20 5 20H8M13 20H8M8 16V20" stroke="#000000" stroke-linecap="round" stroke-linejoin="round" stroke-width="2"/><path d="M17.001 8H17" stroke="#000000" stroke-linecap="round" stroke-linejoin="round" stroke-width="2"/><path d="M13.001 8H13" stroke="#000000" stroke-linecap="round" stroke-linejoin="round" stroke-width="2"/><path d="M17.001 12H17" stroke="#000000" stroke-linecap="round" stroke-linejoin="round" stroke-width="2"/><path d="M17.001 16H17" stroke="#000000" stroke-linecap="round" stroke-linejoin="round" stroke-width="2"/></svg>